# xmcd
#
# Track frame offsets: 
#        150
#        11824
#        26791
#        41579
#        65288
#        82574
#        99287
#        115313
#        128303
#        144950
#
# Disc length: 2209 seconds
#
# Revision: 3
# Processed by: cddbd v1.5.2PL0 Copyright (c) Steve Scherf et al.
# Submitted via: ExactAudioCopy v1.0b4
#
DISCID=6e089f0a
DTITLE=Kris Kristofferson - Easter Island
DYEAR=1978
DGENRE=
TTITLE0=Risky bizness
TTITLE1=How do you feel (About foolin' around)
TTITLE2=Forever in your love
TTITLE3=The sabre and the rose
TTITLE4=Spooky lady's revenge
TTITLE5=Easter Island
TTITLE6=The bigger the fool (The harder the fall)
TTITLE7=Lay me down (And love the world away)
TTITLE8=The fighter
TTITLE9=Living legend
EXTD=
EXTT0=
EXTT1=
EXTT2=
EXTT3=
EXTT4=
EXTT5=
EXTT6=
EXTT7=
EXTT8=
EXTT9=
PLAYORDER=
